<?xml version="1.0" standalone="no"?>
<!DOCTYPE svg PUBLIC "-//W3C//DTD SVG 20010904//EN"
 "http://www.w3.org/TR/2001/REC-SVG-20010904/DTD/svg10.dtd">
<svg version="1.0" xmlns="http://www.w3.org/2000/svg"
 width="741.000000pt" height="310.000000pt" viewBox="0 0 741.000000 310.000000"
 preserveAspectRatio="xMidYMid meet">

<g transform="translate(0.000000,310.000000) scale(0.100000,-0.100000)"
fill="#000000" stroke="none">
<path d="M1075 3090 c-11 -5 -46 -19 -78 -31 -32 -11 -56 -23 -54 -25 2 -3 44
11 93 30 49 19 82 35 74 35 -8 0 -24 -4 -35 -9z"/>
<path d="M1180 3090 c-88 -30 -105 -39 -111 -61 -4 -13 -15 -51 -24 -83 -9
-33 -20 -55 -23 -50 -19 26 -101 -4 -97 -35 1 -9 0 -10 -2 -3 -3 9 -15 12 -34
10 -16 -3 -30 0 -32 6 -3 7 -12 4 -24 -6 -24 -22 -34 -23 -27 -3 10 24 -23 29
-53 8 -29 -20 -63 -20 -63 0 1 37 15 55 57 72 26 11 67 29 92 42 37 18 40 21
16 16 -16 -3 -53 -16 -82 -29 -28 -13 -56 -24 -60 -24 -32 0 -46 -36 -97 -238
-30 -118 -58 -218 -64 -224 -19 -19 -85 -27 -139 -17 -71 13 -88 7 -89 -33 -1
-18 -16 -87 -33 -153 -18 -66 -37 -137 -42 -157 -12 -45 -34 -52 -26 -9 6 26
3 29 -26 34 -18 3 -42 8 -54 12 -19 6 -23 2 -34 -37 -6 -23 -30 -95 -54 -160
l-42 -116 30 -6 c58 -12 89 -7 94 14 3 11 9 20 14 20 14 0 11 -37 -7 -78 -16
-36 -17 -36 -23 -12 -6 21 -14 26 -56 31 -28 3 -53 4 -58 2 -10 -6 -9 -343 2
-343 5 0 11 7 15 15 3 8 10 15 15 15 5 0 2 -22 -7 -50 -9 -27 -19 -50 -24 -50
-4 0 -8 -103 -8 -230 l0 -230 418 -1 c229 -1 678 -3 997 -4 l580 -3 11 -23 c7
-14 9 -42 5 -68 -6 -43 -7 -44 -23 -27 -10 10 -18 22 -18 27 0 5 -4 9 -10 9
-5 0 -10 -9 -10 -20 0 -29 -14 -24 -27 9 -9 24 -15 29 -34 24 -22 -6 -22 -7
-3 -14 10 -4 -61 -8 -158 -8 -115 -1 -179 -5 -184 -12 -3 -6 -17 -8 -32 -4
-14 3 -28 1 -32 -4 -10 -17 -57 -20 -525 -31 -453 -10 -773 -9 -793 4 -7 4
-12 14 -12 22 0 10 -5 12 -13 7 -25 -16 -47 -14 -40 4 6 14 2 14 -23 -4 -16
-11 -39 -24 -51 -27 -23 -7 -23 -8 -23 -216 0 -195 1 -209 19 -215 10 -3 30
-1 44 4 15 6 28 7 31 3 3 -5 -15 -14 -39 -21 -52 -15 -51 -11 -54 -199 l-2
-142 755 0 c594 0 755 3 759 13 4 9 6 9 6 0 1 -10 261 -13 1229 -13 786 0
1222 4 1212 10 -9 6 -10 10 -3 10 6 0 15 -4 18 -10 4 -6 154 -10 417 -10 398
0 411 1 395 18 -24 26 -21 42 7 42 27 0 42 -15 26 -25 -13 -8 -13 -35 0 -35 6
0 10 6 10 14 0 7 7 19 15 26 14 11 14 10 6 -14 l-11 -26 191 0 c159 0 191 2
195 15 8 19 24 19 24 0 0 -9 10 -15 26 -15 14 0 23 4 20 9 -7 10 20 9 30 -2
11 -11 36 -8 29 2 -3 6 4 7 17 3 13 -3 472 -8 1021 -9 l997 -4 0 304 0 305
-22 7 -23 8 23 4 c22 4 22 6 22 178 l0 173 -36 6 c-54 11 -93 -1 -87 -25 3
-10 9 -19 14 -19 5 0 9 -7 9 -15 0 -19 -2 -19 -58 7 -26 12 -50 23 -54 24 -5
1 -10 3 -13 4 -7 3 -23 7 -36 9 -6 0 -8 8 -5 17 5 13 2 15 -16 11 -12 -4 -28
-2 -34 4 -9 7 -19 7 -34 -1 -26 -14 -102 -9 -108 8 -3 9 27 12 127 12 81 0
131 -4 131 -10 0 -6 40 -10 100 -10 l100 0 0 151 c0 97 -4 148 -10 144 -5 -3
-10 -1 -10 4 0 6 5 11 12 11 6 0 9 3 5 6 -3 3 -20 -1 -38 -10 -25 -13 -65 -16
-186 -16 l-153 0 0 25 c0 20 -5 25 -25 27 -14 0 -31 1 -37 2 -8 1 -12 -9 -10
-26 4 -38 -15 -36 -23 2 -6 25 -11 30 -37 30 -23 0 -29 -4 -24 -15 3 -8 9 -22
12 -30 4 -10 0 -15 -14 -15 -15 0 -22 9 -27 30 -6 28 -9 30 -54 30 -56 0 -64
-6 -50 -32 8 -14 8 -23 0 -31 -7 -7 -15 0 -26 27 -13 32 -19 36 -43 32 -15 -2
-37 -5 -48 -5 -17 -1 -20 -6 -16 -26 4 -22 10 -25 44 -25 24 0 37 -4 33 -10
-4 -6 -12 -10 -18 -9 -31 4 -46 -2 -41 -15 5 -12 9 -12 32 0 24 12 27 12 30
-2 2 -8 1 -21 -1 -28 -7 -19 -65 -26 -78 -10 -9 11 -17 11 -46 -1 -55 -23 -69
-19 -86 23 l-15 37 52 3 c58 4 71 12 61 41 -5 17 -16 21 -67 23 -40 2 -62 7
-64 16 -1 7 0 9 2 4 4 -7 103 -5 112 3 1 1 0 10 -4 19 -5 12 -19 16 -61 16
-30 0 -52 -4 -49 -9 6 -9 -26 -21 -54 -21 -11 1 -10 4 4 15 18 14 16 15 -31
15 -109 0 -203 -12 -203 -27 0 -11 15 -13 84 -7 84 7 85 6 111 -22 25 -27 25
-29 8 -42 -15 -11 -16 -14 -3 -22 11 -7 11 -10 2 -10 -7 0 -11 -4 -8 -9 3 -5
-5 -16 -18 -24 -22 -15 -23 -15 -34 21 -7 20 -8 38 -3 40 4 1 17 10 27 18 18
14 17 15 -10 11 -21 -4 -30 0 -33 14 -4 15 -12 17 -57 12 -29 -3 -56 -12 -63
-21 -12 -14 -13 -14 -13 4 0 11 -4 24 -9 30 -5 5 -23 54 -41 109 -18 55 -36
105 -40 110 -4 6 -28 78 -54 160 -25 83 -60 195 -77 250 -17 55 -36 106 -41
112 -6 7 -8 20 -4 28 6 15 -3 19 -41 15 -20 -1 -153 82 -208 130 -11 10 -65
49 -120 86 -55 37 -156 108 -225 157 -118 84 -126 92 -137 136 -17 64 -16 81
5 81 30 0 31 8 11 73 -41 133 -51 187 -40 201 9 11 5 20 -20 40 l-32 27 -472
-3 c-261 -2 -477 -6 -481 -11 -4 -4 2 -14 14 -23 14 -10 22 -26 22 -45 l0 -30
-52 5 c-29 3 -137 8 -240 12 l-188 6 -77 44 -78 44 -1079 -2 -1080 -3 -7 -34
c-5 -26 -3 -37 12 -49 25 -22 7 -42 -37 -42 l-34 0 0 65 0 65 -37 -1 c-21 0
-49 -5 -63 -9z m70 -25 c0 -18 -5 -25 -20 -25 -11 0 -19 6 -17 13 1 6 -6 11
-15 9 -25 -4 -22 7 5 18 37 15 47 11 47 -15z m918 7 c2 -7 -2 -10 -12 -6 -9 3
-16 11 -16 16 0 13 23 5 28 -10z m-408 -21 c0 -10 -7 -22 -16 -25 -8 -3 -13
-2 -11 2 2 4 7 15 10 25 8 23 17 22 17 -2z m200 11 c0 -13 -12 -22 -22 -16
-10 6 -1 24 13 24 5 0 9 -4 9 -8z m-810 -23 c0 -5 -8 -9 -18 -9 -12 0 -18 -7
-18 -20 1 -27 -18 -30 -22 -3 -2 13 5 27 19 37 22 15 39 13 39 -5z m3210 -9
c-12 -22 -21 -26 -17 -7 2 10 17 26 25 27 1 0 -2 -9 -8 -20z m-2729 -48 c-4
-14 -13 -28 -20 -30 -8 -3 -11 0 -7 7 4 6 2 11 -3 11 -18 0 -12 38 6 49 23 12
33 -3 24 -37z m-409 -14 c-21 -21 -32 -3 -15 22 16 22 18 23 21 6 2 -10 -1
-23 -6 -28z m-114 -26 c2 -13 -3 -25 -13 -28 -21 -9 -24 -4 -18 29 6 32 26 31
31 -1z m862 -37 c0 -14 -4 -25 -10 -25 -5 0 -10 10 -10 21 0 18 -2 19 -15 9
-8 -7 -15 -28 -15 -46 0 -42 -18 -45 -26 -4 -7 31 -24 42 -24 15 0 -9 -7 -30
-16 -46 -17 -34 -10 -54 11 -26 12 17 45 14 45 -4 0 -5 7 -9 15 -9 9 0 15 9
15 23 0 12 5 29 10 37 7 11 10 6 10 -20 0 -59 -33 -395 -39 -402 -4 -5 -5 8
-3 27 3 27 1 35 -12 35 -10 0 -16 -9 -17 -22 0 -13 -3 -17 -6 -10 -7 17 -48
15 -64 -4 -7 -9 -12 -36 -10 -64 1 -27 -3 -59 -9 -70 -6 -11 -11 -52 -11 -90
0 -38 -5 -72 -10 -75 -5 -4 -9 2 -9 13 0 23 39 483 45 532 2 19 7 70 11 113 4
44 11 80 18 82 6 2 31 10 56 18 64 21 70 20 70 -8z m417 -27 c-2 -13 -4 -5 -4
17 -1 22 1 32 4 23 2 -10 2 -28 0 -40z m-1107 17 c-10 -12 -7 -15 14 -21 14
-3 26 -12 26 -20 0 -22 -24 -17 -49 10 -24 25 -21 46 6 46 12 0 13 -3 3 -15z
m1067 -7 c-3 -8 -6 -5 -6 6 -1 11 2 17 5 13 3 -3 4 -12 1 -19z m-1290 -120
c-3 -8 -6 -5 -6 6 -1 11 2 17 5 13 3 -3 4 -12 1 -19z m-230 -50 c-3 -8 -6 -5
-6 6 -1 11 2 17 5 13 3 -3 4 -12 1 -19z m73 -28 c0 -5 -5 -10 -11 -10 -5 0 -7
5 -4 10 3 6 8 10 11 10 2 0 4 -4 4 -10z m1019 -322 c0 -24 -3 -38 -5 -31 -3 7
-13 10 -22 7 -15 -5 -15 -4 1 6 9 6 17 22 17 35 0 14 2 25 5 25 3 0 5 -19 4
-42z m286 -35 c-3 -27 -9 -113 -15 -193 -16 -227 -20 -259 -36 -253 -16 6 -11
146 6 151 8 3 8 8 0 17 -12 15 -2 145 11 145 5 0 9 5 9 11 0 5 -5 7 -10 4 -13
-8 -2 124 11 141 5 6 6 14 2 17 -3 4 1 7 11 7 14 0 16 -7 11 -47z m-355 -1 c0
-13 -12 -22 -22 -16 -10 6 -1 24 13 24 5 0 9 -4 9 -8z m57 -74 c-2 -13 -4 -3
-4 22 0 25 2 35 4 23 2 -13 2 -33 0 -45z m-67 13 c0 -11 -4 -23 -10 -26 -6 -4
-10 5 -10 19 0 14 5 26 10 26 6 0 10 -9 10 -19z m3510 -51 c0 -5 -2 -10 -4
-10 -3 0 -8 5 -11 10 -3 6 -1 10 4 10 6 0 11 -4 11 -10z m-3520 -24 c0 -14 -4
-27 -9 -30 -4 -3 -8 8 -7 24 1 36 16 41 16 6z m61 -32 c-5 -21 -10 -32 -10
-24 -1 8 -4 26 -8 39 -4 17 -3 22 5 17 7 -4 12 -2 12 5 0 7 2 10 5 7 3 -3 1
-23 -4 -44z m3507 21 c-3 -3 -9 2 -12 12 -6 14 -5 15 5 6 7 -7 10 -15 7 -18z
m52 -23 c0 -15 -2 -15 -10 -2 -13 20 -13 33 0 25 6 -3 10 -14 10 -23z m50 -30
c0 -15 -2 -15 -10 -2 -13 20 -13 33 0 25 6 -3 10 -14 10 -23z m-166 -32 c4
-23 3 -31 -4 -24 -5 5 -13 25 -16 44 -4 23 -3 32 3 25 6 -5 13 -26 17 -45z
m86 30 c0 -5 -2 -10 -4 -10 -3 0 -8 5 -11 10 -3 6 -1 10 4 10 6 0 11 -4 11
-10z m130 -28 c0 -7 -4 -10 -10 -7 -5 3 -10 16 -10 28 0 18 2 19 10 7 5 -8 10
-21 10 -28z m-159 -24 c6 -24 13 -46 16 -50 2 -5 0 -8 -5 -8 -5 0 -17 19 -26
43 -19 49 -19 57 -6 57 5 0 14 -19 21 -42z m77 17 c-3 -3 -9 2 -12 12 -6 14
-5 15 5 6 7 -7 10 -15 7 -18z m132 -28 c0 -16 -18 3 -23 25 -6 22 -5 22 8 4 8
-11 15 -24 15 -29z m-160 -2 c18 -48 23 -78 12 -71 -14 9 -43 96 -31 96 5 0
14 -11 19 -25z m53 -32 c3 -16 9 -36 12 -45 4 -10 3 -18 -2 -18 -9 0 -33 64
-33 89 0 22 17 2 23 -26z m134 15 c-3 -8 -6 -5 -6 6 -1 11 2 17 5 13 3 -3 4
-12 1 -19z m46 -15 c5 -26 4 -26 -9 -8 -15 21 -19 49 -5 41 5 -3 11 -18 14
-33z m-5453 -2 c0 -14 -22 -75 -33 -88 -17 -23 -26 -3 -13 30 7 17 16 40 19
50 6 17 27 24 27 8z m5324 -38 c9 -25 14 -49 11 -51 -6 -6 -35 62 -35 83 0 26
8 16 24 -32z m169 15 c6 -22 5 -22 -8 -4 -17 22 -20 40 -6 32 5 -3 11 -16 14
-28z m-123 -33 c6 -19 10 -41 7 -48 -5 -12 -22 23 -33 70 -10 39 12 20 26 -22z
m60 24 c0 -6 -4 -7 -10 -4 -5 3 -10 11 -10 16 0 6 5 7 10 4 6 -3 10 -11 10
-16z m100 -19 c0 -13 -1 -13 -10 0 -5 8 -10 22 -10 30 0 13 1 13 10 0 5 -8 10
-22 10 -30z m-375 -17 c17 -39 16 -46 -3 -34 -12 7 -29 71 -18 71 3 0 13 -16
21 -37z m51 -13 c12 -41 12 -61 -2 -48 -13 14 -33 99 -22 96 6 -2 17 -24 24
-48z m354 41 c0 -5 3 -17 7 -27 4 -11 3 -15 -4 -11 -14 9 -24 47 -12 47 5 0 9
-4 9 -9z m-141 -80 c2 -31 -17 5 -22 44 l-6 40 14 -35 c7 -19 14 -42 14 -49z
m180 29 c0 -10 -3 -8 -9 5 -12 27 -12 43 0 25 5 -8 9 -22 9 -30z m-344 -6 c18
-43 19 -54 5 -54 -5 0 -12 12 -16 28 -3 15 -8 35 -11 45 -8 31 6 18 22 -19z
m195 -5 c6 -23 9 -43 6 -46 -3 -3 -7 0 -10 8 -2 8 -9 29 -15 47 -6 18 -6 32
-1 32 5 0 14 -18 20 -41z m-140 -24 c13 -48 7 -75 -8 -34 -17 45 -22 79 -13
79 4 0 14 -20 21 -45z m184 -2 c9 -25 14 -49 11 -51 -6 -6 -35 62 -35 83 0 26
8 16 24 -32z m-145 -5 c19 -50 22 -68 13 -68 -6 0 -13 12 -16 28 -4 15 -9 35
-12 45 -8 25 5 21 15 -5z m185 -28 l6 -35 -15 30 c-16 34 -20 64 -6 50 5 -6
12 -26 15 -45z m-131 -35 l6 -40 -14 35 c-15 40 -20 85 -6 60 5 -8 11 -33 14
-55z m171 10 c5 -21 4 -27 -3 -20 -6 6 -13 26 -16 45 -7 42 8 21 19 -25z m32
-6 c7 -21 9 -39 5 -39 -7 0 -31 67 -31 85 0 18 15 -9 26 -46z m-163 -6 c13
-46 14 -63 1 -51 -11 12 -33 98 -24 98 5 0 15 -21 23 -47z m-207 10 c-7 -7
-26 7 -26 19 0 6 6 6 15 -2 9 -7 13 -15 11 -17z m404 -19 c7 -19 10 -38 7 -40
-3 -3 -12 16 -20 41 -9 25 -12 43 -7 40 5 -3 14 -21 20 -41z m-156 -11 c16
-48 15 -69 -2 -36 -12 22 -25 83 -19 83 3 0 12 -21 21 -47z m-281 -12 c3 -16
9 -42 13 -57 6 -26 5 -27 -8 -14 -16 15 -38 72 -38 96 0 24 28 3 33 -25z m325
-10 c14 -46 15 -58 3 -45 -13 13 -31 84 -22 84 4 0 13 -17 19 -39z m-285 22
c3 -5 12 -31 20 -60 13 -44 13 -51 1 -46 -7 3 -19 24 -24 47 -6 22 -13 47 -15
54 -5 13 11 17 18 5z m320 -38 c9 -25 12 -45 8 -45 -7 0 -31 65 -31 84 0 17
10 1 23 -39z m46 -50 c0 -13 -5 -8 -14 15 -18 46 -17 74 0 35 8 -16 14 -39 14
-50z m-299 24 c6 -22 14 -47 17 -55 3 -10 0 -12 -10 -8 -8 3 -20 25 -26 49
-13 53 -13 55 -1 55 5 0 14 -18 20 -41z m-153 9 c-3 -8 -6 -5 -6 6 -1 11 2 17
5 13 3 -3 4 -12 1 -19z m260 0 c-3 -8 -6 -5 -6 6 -1 11 2 17 5 13 3 -3 4 -12
1 -19z m222 -25 c15 -53 6 -52 -12 2 -9 25 -12 43 -7 40 5 -3 14 -22 19 -42z
m-274 -15 c8 -28 13 -53 11 -55 -6 -6 -23 21 -35 56 -14 41 -14 51 -1 51 5 0
16 -23 25 -52z m314 -28 c0 -8 -7 1 -14 20 -18 46 -17 64 0 25 8 -16 14 -37
14 -45z m-5779 48 c0 -34 -56 -188 -68 -188 -8 0 -12 6 -10 13 2 6 18 51 34
100 26 78 44 109 44 75z m5504 -27 c3 -22 9 -48 12 -58 5 -12 4 -15 -3 -8 -8
9 -33 82 -33 99 0 3 4 6 9 6 5 0 11 -18 15 -39z m50 -44 c9 -31 11 -47 4 -45
-10 4 -37 78 -38 103 0 22 21 -14 34 -58z m40 -4 c15 -42 15 -65 0 -51 -11 12
-33 98 -24 98 4 0 15 -21 24 -47z m-265 20 c5 -10 13 -35 19 -55 8 -29 7 -38
-2 -38 -7 0 -20 25 -28 55 -15 53 -9 74 11 38z m311 -46 c7 -21 10 -41 7 -44
-8 -7 -23 26 -32 67 -9 45 8 29 25 -23z m84 37 c3 -8 2 -12 -4 -9 -6 3 -10 10
-10 16 0 14 7 11 14 -7z m-335 -16 c5 -13 12 -38 16 -55 5 -27 4 -32 -8 -27
-8 3 -18 21 -22 40 -3 20 -9 42 -12 50 -3 8 0 14 6 14 6 0 15 -10 20 -22z
m289 -27 c14 -46 15 -51 3 -51 -5 0 -11 12 -14 28 -3 15 -9 35 -12 45 -4 9 -3
17 2 17 6 0 15 -17 21 -39z m92 18 c0 -6 -4 -7 -10 -4 -5 3 -10 11 -10 16 0 6
5 7 10 4 6 -3 10 -11 10 -16z m-318 -44 c8 -30 12 -55 7 -55 -11 0 -24 26 -37
73 -8 28 -7 37 2 37 7 0 20 -25 28 -55z m261 18 c3 -16 9 -36 12 -45 4 -10 3
-18 -3 -18 -5 0 -12 12 -16 28 -3 15 -9 38 -12 51 -5 16 -3 22 3 18 6 -4 13
-19 16 -34z m87 16 c0 -6 -4 -7 -10 -4 -5 3 -10 11 -10 16 0 6 5 7 10 4 6 -3
10 -11 10 -16z m-305 -36 c4 -21 9 -46 12 -57 3 -11 1 -16 -6 -12 -10 7 -31
69 -31 94 0 28 20 9 25 -25z m264 -38 c0 -30 -15 1 -23 45 l-6 35 15 -30 c8
-16 14 -39 14 -50z m-219 11 c14 -50 8 -86 -8 -46 -5 14 -13 40 -17 58 -10 49
10 39 25 -12z m248 5 c15 -47 15 -62 1 -38 -16 27 -29 77 -20 77 4 0 13 -17
19 -39z m-204 -18 c19 -54 19 -63 6 -63 -5 0 -14 18 -20 41 -6 22 -14 47 -17
55 -3 8 -1 14 5 14 6 0 17 -21 26 -47z m235 -3 l-1 -25 -8 25 c-4 14 -8 32 -9
40 -1 13 0 13 9 0 5 -8 9 -26 9 -40z m-184 -34 c8 -27 10 -44 4 -40 -11 6 -25
39 -35 82 -11 46 15 11 31 -42z m29 22 c23 -57 28 -78 17 -78 -6 0 -15 18 -21
41 -6 22 -14 47 -17 55 -11 30 9 12 21 -18z m-296 -6 c6 -18 -15 -14 -22 4 -4
10 -1 14 6 12 6 -2 14 -10 16 -16z m347 -36 c16 -51 3 -64 -14 -15 -12 34 -15
76 -5 67 3 -3 12 -27 19 -52z m39 -21 c13 -40 14 -47 2 -35 -8 8 -18 33 -22
55 -9 51 -1 44 20 -20z m-289 35 c3 -5 1 -10 -4 -10 -6 0 -11 5 -11 10 0 6 2
10 4 10 3 0 8 -4 11 -10z m315 -15 c18 -47 23 -78 13 -72 -6 4 -13 19 -16 34
-3 16 -9 36 -12 46 -4 9 -4 17 -1 17 4 0 11 -11 16 -25z m49 -16 c5 7 13 -6
20 -30 14 -46 7 -66 -8 -25 -12 29 -23 36 -16 9 3 -10 -1 -4 -9 12 -18 36 -21
70 -5 41 8 -13 14 -15 18 -7z m-427 -54 c9 -33 15 -61 13 -64 -9 -9 -33 21
-38 48 -3 16 -9 41 -13 56 -5 21 -3 26 7 23 7 -2 21 -31 31 -63z m-65 33 c-3
-8 -6 -5 -6 6 -1 11 2 17 5 13 3 -3 4 -12 1 -19z m118 -44 c16 -54 14 -78 -4
-58 -5 5 -15 33 -24 62 -12 42 -12 52 -2 52 8 0 21 -25 30 -56z m155 40 c0 -8
-4 -12 -10 -9 -5 3 -10 10 -10 16 0 5 5 9 10 9 6 0 10 -7 10 -16z m50 -26 c0
-5 -4 -8 -10 -8 -5 0 -10 10 -10 23 0 18 2 19 10 7 5 -8 10 -18 10 -22z m-167
15 c3 -5 8 -30 11 -58 6 -48 5 -49 -8 -20 -20 44 -28 85 -17 85 5 0 12 -3 14
-7z m48 -30 c18 -47 22 -83 11 -83 -6 0 -16 18 -22 41 -6 22 -14 47 -17 55 -3
8 0 14 6 14 6 0 16 -12 22 -27z m58 -50 c7 -25 10 -48 7 -51 -6 -6 -30 48 -40
92 -6 25 -5 28 7 17 8 -6 20 -32 26 -58z m141 39 c0 -15 -2 -15 -10 -2 -13 20
-13 33 0 25 6 -3 10 -14 10 -23z m-110 1 c0 -5 7 -29 15 -55 14 -48 3 -69 -14
-25 -17 45 -23 87 -12 87 6 0 11 -3 11 -7z m150 -9 c0 -8 -4 -12 -10 -9 -5 3
-10 10 -10 16 0 5 5 9 10 9 6 0 10 -7 10 -16z m-95 -44 c9 -28 15 -56 12 -63
-5 -13 -30 39 -41 86 -11 47 12 29 29 -23z m152 18 c-3 -8 -6 -5 -6 6 -1 11 2
17 5 13 3 -3 4 -12 1 -19z m-112 -25 c9 -21 14 -47 12 -58 -3 -17 -5 -16 -16
10 -16 38 -25 85 -17 85 3 0 13 -17 21 -37z m149 21 c3 -8 2 -12 -4 -9 -6 3
-10 10 -10 16 0 14 7 11 14 -7z m-3869 -31 c-4 -21 -7 -72 -6 -113 1 -51 -3
-86 -13 -105 -14 -27 -15 -21 -15 98 -1 106 2 127 14 127 21 0 19 18 -2 23
-13 3 -11 5 6 6 22 1 23 -2 16 -36z m3764 -19 c7 -26 10 -49 7 -52 -6 -6 -21
30 -31 77 -11 52 11 29 24 -25z m26 36 c3 -5 1 -10 -4 -10 -6 0 -11 5 -11 10
0 6 2 10 4 10 3 0 8 -4 11 -10z m-367 -49 c14 -46 15 -51 3 -51 -9 0 -31 53
-31 76 0 28 17 13 28 -25z m1445 2 c-7 -2 -19 -2 -25 0 -7 3 -2 5 12 5 14 0
19 -2 13 -5z m-1237 -69 c9 -30 14 -58 11 -61 -8 -7 -33 45 -42 85 -12 55 13
36 31 -24z m277 16 c3 -11 2 -18 -3 -15 -4 3 -10 14 -13 25 -3 11 -2 18 3 15
4 -3 10 -14 13 -25z m-234 -21 c7 -23 15 -47 18 -55 3 -8 0 -14 -6 -14 -12 0
-24 26 -36 78 -10 47 10 40 24 -9z m45 -13 c19 -63 19 -66 6 -66 -5 0 -16 23
-25 52 -18 60 -18 68 -6 68 5 0 17 -24 25 -54z m918 32 c-17 -17 -15 -26 9
-33 11 -4 18 -9 15 -12 -3 -3 -17 2 -31 11 -21 14 -24 20 -14 32 6 8 16 14 22
14 7 0 7 -4 -1 -12z m-882 -23 c18 -46 22 -75 13 -75 -9 0 -33 64 -33 89 0 19
10 12 20 -14z m43 -20 c9 -24 12 -47 7 -50 -5 -3 -14 11 -19 32 -21 73 -11 87
12 18z m-203 0 c0 -5 -5 -3 -10 5 -5 8 -10 20 -10 25 0 6 5 3 10 -5 5 -8 10
-19 10 -25z m705 15 c3 -5 1 -10 -4 -10 -6 0 -11 5 -11 10 0 6 2 10 4 10 3 0
8 -4 11 -10z m238 -17 c9 -8 -24 -32 -45 -33 -25 0 -22 19 5 30 28 11 32 11
40 3z m12 -33 c3 -5 1 -10 -4 -10 -6 0 -11 5 -11 10 0 6 2 10 4 10 3 0 8 -4
11 -10z m-1031 -16 c4 -10 1 -14 -6 -12 -15 5 -23 28 -10 28 5 0 13 -7 16 -16z
m1123 10 c-3 -3 -12 -4 -19 -1 -8 3 -5 6 6 6 11 1 17 -2 13 -5z m-429 -39 c-3
-3 -9 2 -12 12 -6 14 -5 15 5 6 7 -7 10 -15 7 -18z m471 -11 c-11 -14 -9 -19
11 -36 17 -13 19 -16 5 -9 -46 24 -50 28 -36 45 8 9 18 16 23 16 6 0 4 -7 -3
-16z m-1006 -51 c3 -16 3 -30 1 -33 -7 -7 -24 23 -24 43 0 27 17 20 23 -10z
m41 -9 c9 -36 -1 -43 -14 -10 -12 33 -12 36 -1 36 5 0 12 -12 15 -26z m-3744
6 c0 -5 -2 -10 -4 -10 -3 0 -8 5 -11 10 -3 6 -1 10 4 10 6 0 11 -4 11 -10z
m3810 -80 c0 -5 -2 -10 -4 -10 -3 0 -8 5 -11 10 -3 6 -1 10 4 10 6 0 11 -4 11
-10z m1102 -34 c9 -7 26 -36 37 -64 20 -51 20 -52 1 -52 -11 0 -25 10 -31 23
-7 12 -19 26 -27 31 -10 6 -11 10 -3 15 8 6 9 15 2 34 -11 29 -5 33 21 13z
m94 -285 c-57 -7 -78 -29 -59 -60 15 -23 -1 -34 -29 -20 -10 5 -19 5 -22 0 -4
-5 -28 -4 -59 3 -98 23 -101 42 -5 45 98 3 100 22 3 34 -16 2 26 4 95 4 75 0
105 -3 76 -6z m101 3 c-3 -3 -12 -4 -19 -1 -8 3 -5 6 6 6 11 1 17 -2 13 -5z
m-613 -26 c40 -11 70 -28 51 -28 -13 0 -112 39 -101 40 5 0 27 -5 50 -12z
m-574 -23 c41 -10 47 -13 25 -14 -16 0 -50 6 -75 13 -58 19 -22 19 50 1z m525
5 c25 -11 -1 -11 -35 0 -20 6 -21 8 -5 8 11 0 29 -3 40 -8z m-142 -7 c-7 -2
-21 -2 -30 0 -10 3 -4 5 12 5 17 0 24 -2 18 -5z m-2280 -19 c41 -20 91 -80 81
-95 -5 -9 -17 -1 -38 25 l-31 37 -318 0 c-312 0 -394 -4 -431 -23 -13 -7 -16
-7 -12 1 4 6 -2 15 -15 20 -20 7 -16 10 29 21 89 21 188 27 450 29 213 1 259
-2 285 -15z m2138 1 l34 -16 -35 7 c-19 3 -39 10 -44 15 -15 14 8 11 45 -6z
m144 -8 c33 -8 49 -15 35 -16 -28 -1 -129 24 -139 35 -3 4 5 4 19 1 14 -3 52
-13 85 -20z m145 0 c30 -9 104 -18 165 -20 96 -5 107 -3 90 9 -10 8 -35 15
-54 15 -20 1 -49 5 -66 9 -24 6 -17 8 32 9 71 1 150 -17 157 -36 3 -8 -2 -13
-15 -13 -12 0 -18 -4 -13 -11 5 -9 -15 -10 -76 -5 -57 5 -80 4 -75 -3 3 -6 1
-11 -4 -11 -6 0 -11 4 -11 8 0 7 -48 9 -60 2 -28 -16 -95 4 -69 21 6 3 -11 12
-38 19 -26 7 -52 17 -58 23 -11 11 8 7 95 -16z m70 13 c12 -8 12 -10 -5 -10
-11 0 -27 5 -35 10 -12 8 -12 10 5 10 11 0 27 -5 35 -10z m-375 -32 c32 -14
32 -34 0 -40 -19 -4 -25 -1 -25 11 0 10 -5 22 -12 29 -16 16 2 16 37 0z m785
-24 c0 -8 -4 -12 -10 -9 -5 3 -10 13 -10 21 0 8 5 12 10 9 6 -3 10 -13 10 -21z
m-3420 -14 c9 -16 8 -20 -5 -20 -8 0 -15 9 -15 20 0 11 2 20 5 20 2 0 9 -9 15
-20z m30 16 c0 -3 -4 -8 -10 -11 -5 -3 -10 -1 -10 4 0 6 5 11 10 11 6 0 10 -2
10 -4z m290 0 c0 -3 -4 -8 -10 -11 -5 -3 -10 -1 -10 4 0 6 5 11 10 11 6 0 10
-2 10 -4z m2437 -7 c-12 -7 -27 -7 -45 0 -25 9 -24 9 18 10 36 0 41 -2 27 -10z
m-2229 -8 c11 -7 10 -10 -3 -15 -26 -10 -175 -7 -175 3 0 17 155 27 178 12z
m2064 -9 c-2 -11 7 -12 40 -6 48 9 69 9 146 -1 28 -4 52 -4 52 1 0 5 40 9 89
9 49 0 87 -3 84 -7 -2 -5 26 -8 62 -8 45 0 64 3 60 11 -7 11 46 7 135 -11 25
-5 133 -17 240 -26 286 -24 288 -29 13 -30 -193 0 -272 -4 -357 -19 -102 -17
-107 -19 -88 -34 11 -9 23 -27 27 -41 7 -23 66 -158 83 -190 5 -8 23 -21 40
-29 39 -18 44 -51 7 -51 -18 0 -23 4 -19 15 4 10 0 15 -11 15 -11 0 -15 -7
-13 -22 5 -34 -39 -38 -51 -5 -16 41 -58 67 -110 67 -36 1 -42 3 -28 11 22 13
22 26 -4 109 -34 114 -41 117 -389 150 -118 11 -251 24 -295 30 -44 5 -127 13
-185 16 -58 4 -112 8 -120 10 -8 1 -46 3 -85 4 l-70 1 45 15 c92 30 708 44
702 16z m203 8 c-3 -5 -14 -10 -23 -10 -15 0 -15 2 -2 10 20 13 33 13 25 0z
m-2550 -10 c-8 -13 -175 -13 -195 0 -10 7 20 10 93 10 70 0 106 -4 102 -10z
m3212 4 c-3 -3 -12 -4 -19 -1 -8 3 -5 6 6 6 11 1 17 -2 13 -5z m-6297 -35 c19
-5 55 -9 80 -9 26 0 51 -5 58 -12 17 -17 97 -29 460 -68 1 0 2 -9 2 -21 0 -13
4 -18 11 -13 16 10 2 -48 -14 -59 -7 -4 -61 -7 -122 -7 -60 1 -127 -2 -148 -5
-32 -6 -36 -5 -31 9 5 13 -1 16 -32 18 -22 0 -52 3 -69 4 -16 2 -74 6 -128 9
-65 3 -105 10 -120 20 -12 8 -16 15 -9 15 6 0 12 5 12 10 0 6 -8 10 -18 10
-10 0 -22 4 -27 8 -16 14 -96 41 -143 48 -59 9 -60 20 -5 38 81 26 157 27 243
5z m2580 17 c0 -2 -8 -10 -17 -17 -16 -13 -17 -12 -4 4 13 16 21 21 21 13z
m30 -23 c0 -22 -2 -25 -10 -13 -13 20 -13 40 0 40 6 0 10 -12 10 -27z m-76
-26 c-3 -8 -22 -24 -44 -38 -22 -13 -40 -30 -40 -37 0 -8 -8 -12 -17 -10 -10
2 -17 10 -15 16 1 7 -5 12 -13 12 -8 0 -15 -9 -15 -20 0 -13 7 -20 20 -20 11
0 20 -5 20 -10 0 -6 10 -15 23 -20 19 -7 16 -9 -19 -9 -23 -1 -55 4 -71 10
-30 10 -31 11 -16 42 29 63 27 62 90 59 49 -3 62 0 77 17 22 24 27 26 20 8z
m514 -14 c-26 -2 -71 -2 -100 0 -29 2 -8 3 47 3 55 0 79 -1 53 -3z m1802 -17
c0 -24 -16 -43 -27 -32 -8 8 6 56 17 56 6 0 10 -11 10 -24z m-2162 7 c-10 -2
-26 -2 -35 0 -10 3 -2 5 17 5 19 0 27 -2 18 -5z m100 0 c-10 -2 -26 -2 -35 0
-10 3 -2 5 17 5 19 0 27 -2 18 -5z m2404 -14 c18 -10 14 -45 -10 -68 -27 -27
-293 18 -300 52 -2 12 10 17 55 22 32 3 65 7 73 9 30 4 165 -7 182 -15z m215
-15 c29 -4 50 -10 48 -14 -7 -11 45 -28 83 -28 42 2 80 -20 98 -54 20 -38 4
-44 -79 -29 -35 6 -87 11 -115 11 -29 0 -52 4 -52 9 0 5 -24 13 -52 18 -56 9
-56 9 -43 71 6 24 21 27 112 16z m-3853 -34 c48 -20 57 -34 31 -44 -20 -7 -53
7 -90 38 -28 23 -28 25 -8 26 12 0 42 -9 67 -20z m-1674 -10 c-36 -11 -52 -11
-45 0 3 6 21 10 38 9 31 -1 31 -1 7 -9z m3810 -55 c-8 -22 -15 -26 -33 -21
-12 3 -29 6 -37 6 -26 1 11 20 38 20 12 0 25 7 29 15 3 9 7 14 10 12 2 -2 -1
-17 -7 -32z m279 26 c9 -6 12 -20 9 -40 -2 -17 -1 -31 4 -31 15 0 5 -43 -11
-48 -9 -3 -11 0 -5 9 6 12 5 12 -8 1 -13 -10 -29 -9 -89 4 -41 9 -83 18 -94
20 -11 2 -29 11 -39 19 -18 13 -18 16 -2 39 15 23 23 25 103 29 49 1 95 4 103
5 8 1 21 -2 29 -7z m126 -5 c15 -6 17 -6 5 2 -16 12 117 9 185 -4 32 -6 35 -8
20 -17 -39 -21 -83 -25 -107 -9 -22 15 -22 15 -6 -4 9 -10 23 -37 32 -58 24
-59 13 -66 -103 -66 -66 0 -91 3 -81 10 8 5 52 10 97 10 l82 0 -11 30 c-5 17
-15 33 -21 37 -6 3 -7 1 -3 -5 4 -7 3 -12 -3 -12 -5 0 -12 4 -15 8 -7 12 -51
7 -74 -10 -12 -8 -19 -18 -15 -21 3 -4 0 -7 -9 -7 -8 0 -21 11 -28 25 -8 14
-16 21 -20 15 -3 -5 -11 12 -16 39 l-10 49 40 -3 c23 -1 50 -5 61 -9z m285
-26 c0 -5 -11 -10 -25 -10 -14 0 -25 5 -25 10 0 6 11 10 25 10 14 0 25 -4 25
-10z m-2727 -38 c15 -2 33 1 41 7 24 20 67 2 82 -35 8 -18 14 -42 14 -53 0
-11 6 -21 13 -24 6 -2 0 -4 -15 -4 -23 0 -28 4 -29 26 0 14 -3 20 -6 14 -3 -8
-14 -11 -30 -7 -29 8 -28 3 15 -53 l24 -33 -33 -1 c-19 0 -58 -3 -86 -5 -40
-3 -53 0 -53 10 0 17 -76 26 -90 12 -6 -6 -13 -6 -19 0 -5 5 3 34 20 72 22 48
37 66 62 77 17 8 39 12 47 8 8 -3 27 -8 43 -11z m2547 -36 c0 -3 -4 -8 -10
-11 -5 -3 -10 -1 -10 4 0 6 5 11 10 11 6 0 10 -2 10 -4z m1155 -16 c45 -7 46
-8 13 -9 -20 0 -38 -6 -40 -12 -2 -7 -18 -3 -41 11 -44 26 -47 35 -9 25 15 -4
50 -11 77 -15z m207 -21 c59 -7 104 -17 101 -22 -3 -5 -24 -6 -47 -2 -22 4
-68 7 -101 7 -46 0 -54 2 -35 9 22 7 20 8 -10 5 -20 -2 -40 3 -48 11 -12 12
-11 13 9 9 13 -2 72 -10 131 -17z m-1589 -6 c-7 -2 -21 -2 -30 0 -10 3 -4 5
12 5 17 0 24 -2 18 -5z m-3562 -18 c-1 -15 -24 -12 -29 3 -3 9 2 13 12 10 10
-1 17 -7 17 -13z m3489 9 c91 -6 96 -8 98 -30 1 -19 -4 -24 -32 -30 -19 -3
-42 -4 -53 -1 -10 3 0 5 22 6 37 2 38 3 15 12 -14 6 -36 8 -50 6 -29 -6 -170
23 -170 35 0 10 42 10 170 2z m-3626 -10 c9 -3 16 -12 16 -20 0 -11 -19 -14
-82 -14 -74 0 -80 1 -62 14 11 8 40 16 65 19 24 2 45 4 46 5 1 1 8 -1 17 -4z
m5479 -1 c-13 -2 -35 -2 -50 0 -16 2 -5 4 22 4 28 0 40 -2 28 -4z m-1691 -14
c2 -6 28 -14 58 -19 54 -8 53 -8 -22 -7 -72 2 -92 10 -71 30 10 11 31 8 35 -4z
m1491 -26 c-7 -2 -21 -2 -30 0 -10 3 -4 5 12 5 17 0 24 -2 18 -5z m-5926 -9
c-3 -3 -12 -4 -19 -1 -8 3 -5 6 6 6 11 1 17 -2 13 -5z m4626 -1 c-7 -2 -21 -2
-30 0 -10 3 -4 5 12 5 17 0 24 -2 18 -5z m2214 -10 c0 -13 -9 -18 -28 -18 -15
0 -25 3 -22 8 2 4 13 7 24 7 11 0 17 5 14 10 -3 6 -2 10 4 10 5 0 9 -8 8 -17z
m117 -4 c-7 -12 -71 -12 -78 0 -8 13 10 17 50 13 19 -2 31 -8 28 -13z m-2204
-10 c10 -6 1 -8 -27 -9 -24 0 -43 4 -43 9 0 5 -8 12 -17 14 -10 3 2 3 27 0 25
-3 52 -9 60 -14z m1085 11 c-3 -5 -15 -10 -25 -10 -10 0 -22 5 -25 10 -4 6 7
10 25 10 18 0 29 -4 25 -10z m859 -5 c-4 -9 -19 -15 -40 -15 -24 0 -34 5 -34
15 0 11 11 15 40 15 31 0 38 -3 34 -15z"/>
<path d="M1880 2766 c-29 -10 -36 -18 -38 -44 -2 -18 -8 -32 -13 -32 -6 0 -7
-5 -4 -10 4 -6 15 -8 26 -5 13 4 19 2 19 -9 0 -9 5 -16 10 -16 6 0 10 9 10 19
0 12 9 21 25 25 25 6 35 26 13 26 -9 0 -9 3 0 12 16 16 15 48 0 47 -7 0 -29
-6 -48 -13z m20 -26 c-8 -5 -19 -10 -25 -10 -5 0 -3 5 5 10 8 5 20 10 25 10 6
0 3 -5 -5 -10z"/>
<path d="M1904 2621 c-7 -31 -34 -33 -34 -2 0 11 -7 7 -25 -14 -20 -25 -23
-37 -18 -70 7 -48 10 -52 25 -37 7 7 19 12 28 12 30 0 41 17 46 78 5 44 3 62
-5 62 -6 0 -14 -13 -17 -29z"/>
<path d="M6038 533 c7 -3 16 -2 19 1 4 3 -2 6 -13 5 -11 0 -14 -3 -6 -6z"/>
<path d="M6747 152 c3 -12 9 -25 14 -28 14 -8 11 10 -6 32 -13 18 -14 18 -8
-4z"/>
<path d="M2408 229 c-7 -5 -8 -9 -3 -10 6 0 23 -2 38 -4 19 -3 27 0 24 8 -4
14 -40 18 -59 6z"/>
<path d="M2330 192 c0 -10 -6 -24 -12 -31 -11 -10 -8 -12 12 -9 29 4 41 42 16
51 -11 4 -16 1 -16 -11z"/>
<path d="M2428 193 c-21 -5 -21 -5 -7 -37 8 -16 22 -26 43 -29 39 -6 42 -3 24
22 -8 12 -17 18 -20 15 -3 -3 -5 2 -4 12 1 19 -10 24 -36 17z"/>
<path d="M7223 3082 c-23 -12 -30 -21 -24 -31 6 -9 10 -10 12 -2 3 7 18 13 34
15 24 3 31 -1 36 -18 3 -11 11 -20 17 -19 6 2 10 -10 10 -25 0 -15 13 -56 30
-92 30 -64 29 -90 -2 -90 -33 -1 -36 -16 -15 -79 18 -53 24 -62 43 -59 21 3
21 7 23 211 l2 207 -67 0 c-43 -1 -78 -7 -99 -18z"/>
<path d="M895 3020 c-8 -13 5 -13 25 0 13 8 13 10 -2 10 -9 0 -20 -4 -23 -10z"/>
<path d="M7225 1851 c-9 -16 18 -23 46 -12 16 6 18 10 7 10 -9 1 -23 4 -31 7
-8 3 -18 1 -22 -5z"/>
<path d="M7353 1853 c9 -2 23 -2 30 0 6 3 -1 5 -18 5 -16 0 -22 -2 -12 -5z"/>
<path d="M6509 1640 c-1 -3 0 -14 1 -25 2 -19 1 -19 -22 3 -15 13 -37 22 -55
22 -28 0 -32 -3 -31 -28 l1 -29 216 -1 c126 0 207 3 195 8 -12 5 -24 20 -28
34 -4 17 -13 26 -26 26 -26 0 -34 -17 -19 -38 8 -9 1 -6 -13 7 -24 21 -37 24
-122 25 -53 0 -97 -1 -97 -4z"/>
<path d="M6983 1632 c-96 -4 -94 -17 2 -17 41 0 75 4 75 10 0 5 5 4 12 -3 18
-18 105 -16 112 3 6 16 16 16 -201 7z"/>
<path d="M6093 1602 c-13 -2 -23 -8 -23 -13 0 -6 8 -9 18 -7 9 1 23 -1 30 -5
7 -5 12 -3 12 7 0 19 -9 23 -37 18z"/>
<path d="M6147 1596 c-3 -8 1 -17 10 -20 18 -7 46 12 37 25 -8 14 -41 10 -47
-5z"/>
<path d="M6230 1595 c7 -8 21 -15 31 -15 11 0 19 7 19 15 0 10 -10 15 -31 15
-27 0 -30 -2 -19 -15z"/>
<path d="M6875 1580 c17 -4 44 -8 60 -8 25 -1 27 1 10 8 -11 5 -38 8 -60 8
-38 0 -39 -1 -10 -8z"/>
<path d="M7014 1579 c-4 -7 1 -16 10 -21 9 -5 16 -14 16 -21 0 -7 19 -58 42
-114 32 -77 48 -103 61 -103 22 0 20 6 -30 134 -19 49 -36 95 -37 103 -4 28
-49 43 -62 22z"/>
<path d="M6510 1561 c0 -5 4 -21 10 -35 8 -23 15 -26 60 -26 27 0 50 2 50 4 0
1 -5 17 -11 35 -10 29 -14 31 -60 31 -27 0 -49 -4 -49 -9z"/>
<path d="M6630 1565 c0 -3 8 -20 17 -38 9 -18 18 -38 19 -45 6 -37 14 -42 64
-42 57 0 57 1 31 75 l-18 50 -56 3 c-31 2 -57 0 -57 -3z"/>
<path d="M6770 1569 c0 -2 11 -31 24 -64 22 -53 28 -60 55 -63 17 -2 31 -2 31
1 0 2 -7 25 -16 51 -17 48 -12 79 5 34 8 -21 14 -24 40 -20 32 4 38 16 21 42
-6 10 -32 16 -84 18 -42 2 -76 3 -76 1z"/>
<path d="M6373 1528 c13 -31 15 -32 63 -29 27 1 50 4 52 6 2 1 0 14 -4 29 -6
24 -10 26 -65 26 l-59 0 13 -32z"/>
<path d="M6180 1543 c-87 -13 -88 -13 -83 -32 4 -16 16 -18 129 -16 68 1 124
5 124 9 0 3 0 15 0 26 0 18 -6 20 -72 19 -40 -1 -84 -3 -98 -6z"/>
<path d="M6890 1483 c0 -30 13 -39 48 -33 32 5 32 6 17 28 -20 27 -65 31 -65
5z"/>
<path d="M6414 1482 c-17 -6 -20 -11 -13 -29 7 -20 14 -22 55 -18 55 6 58 7
49 34 -7 22 -44 27 -91 13z"/>
<path d="M6540 1481 c0 -32 14 -41 62 -41 42 0 49 3 44 16 -3 9 -6 20 -6 25 0
5 -22 9 -50 9 -27 0 -50 -4 -50 -9z"/>
<path d="M6144 1473 c-26 -3 -31 -8 -27 -24 5 -18 15 -19 135 -19 115 0 129 2
124 16 -3 9 -6 20 -6 25 0 9 -161 10 -226 2z"/>
<path d="M6567 1424 c-3 -4 -2 -15 3 -24 8 -15 18 -17 52 -13 51 7 50 6 42 27
-4 11 -18 16 -48 16 -24 0 -46 -3 -49 -6z"/>
<path d="M6694 1415 c3 -9 6 -19 6 -21 0 -2 23 -4 51 -4 43 0 50 3 47 18 -2
13 -15 18 -57 20 -46 3 -53 1 -47 -13z"/>
<path d="M6832 1413 c3 -16 54 -40 65 -30 2 3 2 15 -2 26 -8 27 -68 31 -63 4z"/>
<path d="M6910 1411 c0 -26 8 -30 47 -24 28 5 31 8 22 24 -14 27 -69 26 -69 0z"/>
<path d="M6290 1300 c0 -5 7 -7 15 -4 8 4 15 8 15 10 0 2 -7 4 -15 4 -8 0 -15
-4 -15 -10z"/>
<path d="M6470 1270 c8 -15 18 -19 35 -15 14 3 36 7 50 10 43 9 17 25 -41 25
-52 0 -54 -1 -44 -20z"/>
<path d="M1560 870 c0 -5 5 -10 11 -10 5 0 7 5 4 10 -3 6 -8 10 -11 10 -2 0
-4 -4 -4 -10z"/>
<path d="M1828 863 c7 -3 16 -2 19 1 4 3 -2 6 -13 5 -11 0 -14 -3 -6 -6z"/>
</g>
</svg>
